<?xml version="1.0" standalone="no"?>
<!DOCTYPE svg PUBLIC "-//W3C//DTD SVG 20010904//EN"
 "http://www.w3.org/TR/2001/REC-SVG-20010904/DTD/svg10.dtd">
<svg version="1.0" xmlns="http://www.w3.org/2000/svg"
 width="250" height="35" viewBox="0 0 900.000000 366.000000"
 preserveAspectRatio="xMidYMid meet">
<metadata>
Created by potrace 1.10, written by Peter Selinger 2001-2011
</metadata>
<g transform="translate(0.000000,366.000000) scale(0.100000,-0.100000)"
fill="#000000" stroke="none">
<path d="M22 3608 c-17 -17 -17 -3569 0 -3586 9 -9 1022 -12 4495 -12 l4483 0
0 1805 0 1805 -4483 0 c-3473 0 -4486 -3 -4495 -12z m8505 -467 c28 -9 58 -22
65 -27 7 -5 29 -18 48 -28 35 -19 144 -124 167 -161 21 -33 44 -87 61 -145 15
-50 17 -151 17 -1040 0 -810 -2 -994 -14 -1035 -13 -48 -67 -165 -80 -175 -3
-3 -19 -20 -34 -39 -34 -41 -150 -131 -169 -131 -8 0 -22 -6 -33 -13 -47 -33
-182 -37 -1092 -37 -567 0 -931 4 -980 10 -69 10 -114 24 -163 51 -8 5 -24 13
-35 18 -21 10 -106 90 -140 131 -36 45 -78 144 -91 215 -10 53 -13 291 -13
992 -1 931 3 1050 35 1098 8 11 14 26 14 33 0 33 144 212 171 212 4 0 14 6 21
13 15 14 55 34 118 57 41 16 133 17 1060 18 951 1 1018 0 1067 -17z m-4642
-861 l0 -95 -85 0 -85 0 -3 84 c-2 46 0 91 2 98 4 11 25 13 88 11 l83 -3 0
-95z m-3508 52 c2 -10 5 -101 6 -203 l2 -184 233 -3 232 -2 0 188 c0 136 3
193 13 206 10 14 26 16 92 14 l80 -3 0 -510 0 -510 -79 -3 c-48 -2 -83 1 -90
8 -7 7 -13 88 -16 218 l-5 207 -224 3 c-173 2 -226 -1 -233 -10 -4 -7 -8 -102
-7 -210 0 -109 -2 -202 -6 -208 -9 -14 -158 -13 -173 2 -17 17 -17 989 0 1006
7 7 43 12 91 12 68 0 80 -3 84 -18z m1333 -259 c232 -87 331 -357 209 -574
-19 -33 -111 -129 -124 -129 -6 0 -16 -5 -23 -12 -22 -22 -127 -48 -197 -48
-70 0 -134 17 -202 53 -50 27 -120 103 -150 165 -26 53 -28 66 -28 172 1 127
8 155 65 233 41 57 106 108 175 136 66 26 209 29 275 4z m1693 -1 c31 -10 63
-24 69 -30 7 -7 17 -12 23 -12 7 0 20 -9 30 -20 19 -21 19 -22 -20 -89 -20
-35 -43 -46 -63 -29 -56 46 -173 76 -229 58 -54 -18 -73 -38 -73 -76 0 -28 6
-38 38 -57 20 -13 51 -27 67 -30 83 -16 204 -60 256 -93 42 -26 79 -92 79
-140 0 -145 -125 -244 -309 -244 -125 0 -305 65 -325 117 -5 11 49 113 59 113
1 0 38 -18 81 -39 165 -82 322 -58 300 46 -8 35 -72 69 -176 93 -42 10 -90 27
-148 53 -98 44 -130 152 -77 256 24 48 90 111 116 111 8 1 25 7 39 15 37 21
190 19 263 -3z m1249 -5 c40 -24 65 -53 93 -107 17 -31 19 -68 23 -316 3 -203
1 -287 -7 -303 -11 -20 -18 -22 -94 -19 l-82 3 -5 250 c-5 258 -10 289 -52
322 -48 39 -130 26 -192 -29 -72 -63 -76 -79 -76 -317 0 -148 -3 -210 -12
-219 -17 -17 -152 -16 -167 2 -8 9 -11 117 -9 377 l3 364 75 3 c86 3 100 -6
100 -70 0 -21 3 -38 6 -38 3 0 26 17 50 39 63 55 132 80 229 80 66 1 86 -3
117 -22z m710 3 c24 -11 66 -38 91 -61 51 -44 54 -43 59 26 l3 40 70 3 c57 2
72 0 82 -14 17 -23 18 -655 2 -753 -25 -149 -100 -234 -256 -285 -41 -14 -78
-16 -175 -13 -146 4 -193 20 -284 97 -48 40 -48 46 -3 95 41 45 72 57 82 32 3
-7 33 -28 68 -47 59 -32 71 -34 156 -34 86 -1 95 1 135 30 63 44 88 94 88 177
0 37 -3 67 -6 67 -3 0 -26 -18 -51 -40 -47 -41 -124 -70 -188 -70 -48 0 -126
19 -146 36 -8 8 -20 14 -26 14 -17 0 -112 109 -130 149 -9 20 -21 70 -28 111
-16 97 -5 185 36 266 37 75 88 126 165 165 50 24 71 29 135 29 54 0 89 -6 121
-20z m-3084 -3 c6 -7 12 -109 14 -264 3 -237 4 -253 24 -280 51 -68 157 -60
237 19 l47 47 0 233 c0 128 4 239 8 246 6 9 33 12 98 10 l89 -3 5 -283 c5
-258 7 -285 23 -297 15 -11 17 -25 15 -91 l-3 -78 -33 -10 c-61 -17 -162 34
-162 83 0 9 -5 23 -10 31 -7 12 -15 9 -41 -18 -79 -81 -244 -126 -336 -91 -48
18 -97 57 -115 91 -42 81 -48 132 -48 389 0 136 3 254 6 263 5 13 23 16 89 16
54 0 86 -4 93 -13z m1607 -367 l0 -375 -85 0 -85 0 -3 365 c-1 201 0 371 3
378 3 9 27 12 87 10 l83 -3 0 -375z"/>
<path d="M8047 2359 c-16 -10 -17 -41 -16 -510 2 -417 4 -503 16 -515 18 -18
153 -20 171 -2 7 7 12 25 12 40 0 15 3 28 6 28 3 0 22 -13 42 -30 50 -40 155
-73 210 -66 55 7 142 36 142 47 0 5 6 9 13 9 26 0 120 105 142 160 4 8 13 30
21 48 20 47 19 220 -2 269 -65 152 -122 211 -238 247 -60 19 -149 17 -170 -4
-5 -5 -19 -10 -30 -10 -12 0 -41 -18 -66 -40 l-45 -40 -5 188 -5 187 -90 2
c-50 2 -98 -2 -108 -8z m460 -476 c16 -9 42 -34 58 -56 27 -37 29 -48 30 -126
0 -75 -3 -90 -24 -119 -36 -51 -92 -82 -149 -82 -60 0 -102 20 -142 68 -28 34
-30 42 -30 120 0 94 9 116 74 174 37 35 46 38 98 38 34 0 68 -6 85 -17z"/>
<path d="M6167 2333 c-9 -8 -9 -976 -1 -997 5 -13 24 -16 99 -16 65 0 96 4
104 13 7 9 12 86 13 213 l3 199 203 3 202 2 0 -195 c0 -116 4 -204 10 -216 9
-17 22 -19 103 -19 59 0 97 4 105 12 9 9 12 132 12 494 0 265 -3 489 -6 498
-8 22 -195 24 -213 2 -8 -10 -12 -69 -11 -188 0 -95 1 -177 0 -183 0 -6 -74
-10 -203 -10 l-202 1 -3 189 c-2 136 -6 191 -15 197 -15 9 -191 11 -200 1z"/>
<path d="M7186 2071 c-17 -18 -18 -42 -14 -308 4 -284 4 -289 28 -328 72 -118
180 -157 320 -114 55 17 119 52 142 77 25 26 38 28 38 7 0 -28 32 -66 68 -80
42 -18 123 -20 140 -3 19 19 16 167 -4 189 -13 14 -15 54 -14 276 0 207 -2
262 -13 278 -12 15 -29 19 -93 21 -130 4 -124 17 -124 -260 l0 -234 -51 -46
c-48 -43 -54 -46 -109 -46 -64 0 -78 10 -104 74 -13 31 -16 80 -16 266 0 170
-3 230 -12 237 -7 5 -47 11 -89 12 -64 1 -78 -1 -93 -18z"/>
<path d="M1512 1913 c-94 -33 -147 -153 -122 -273 11 -51 21 -69 57 -105 48
-49 97 -63 178 -51 36 6 52 16 89 57 38 42 46 58 52 105 17 142 -29 236 -135
272 -43 15 -65 14 -119 -5z"/>
<path d="M5223 1913 c-45 -15 -86 -60 -116 -126 -46 -102 8 -251 108 -293 77
-32 162 -15 221 43 l44 45 0 105 c0 88 -3 111 -20 138 -24 40 -73 78 -119 93
-43 15 -65 14 -118 -5z"/>
</g>
</svg>
