<?xml version="1.0" standalone="no"?>
<!DOCTYPE svg PUBLIC "-//W3C//DTD SVG 20010904//EN"
 "http://www.w3.org/TR/2001/REC-SVG-20010904/DTD/svg10.dtd">
<svg version="1.0" xmlns="http://www.w3.org/2000/svg"
 width="150.000000pt" height="32.000000pt" viewBox="0 0 220.000000 47.000000"
 preserveAspectRatio="xMidYMid meet">
<metadata>
Created by potrace 1.10, written by Peter Selinger 2001-2011
</metadata>
<g transform="translate(0.000000,47.000000) scale(0.100000,-0.100000)"
fill="#000000" stroke="none">
<path d="M1806 359 c-26 -20 -26 -22 -26 -148 0 -179 -11 -171 237 -171 246 0
234 -8 235 156 0 66 -2 129 -6 141 -12 36 -48 43 -235 43 -165 0 -180 -2 -205
-21z m400 -14 c17 -11 22 -27 27 -95 9 -115 1 -165 -30 -179 -35 -16 -341 -14
-373 2 -24 12 -25 16 -28 135 l-3 123 31 13 c46 19 347 20 376 1z"/>
<path d="M1820 205 c0 -60 3 -75 15 -75 10 0 15 10 15 33 0 31 2 33 36 33 35
0 36 -1 32 -33 -3 -27 0 -33 14 -33 16 0 18 9 18 75 0 60 -3 75 -15 75 -10 0
-15 -10 -15 -30 0 -28 -3 -30 -35 -30 -32 0 -35 2 -35 30 0 20 -5 30 -15 30
-12 0 -15 -15 -15 -75z"/>
<path d="M2103 206 l-3 -73 45 -1 c68 -2 94 36 59 86 -17 24 -43 29 -62 10 -9
-9 -12 -5 -12 20 0 19 -5 32 -12 32 -9 0 -14 -23 -15 -74z m75 2 c27 -27 -5
-73 -38 -53 -14 8 -13 38 2 53 15 15 21 15 36 0z"/>
<path d="M1970 196 c0 -53 13 -66 66 -63 l41 1 1 53 c1 41 -2 53 -13 53 -10 0
-15 -11 -15 -34 0 -35 -21 -63 -40 -51 -5 3 -10 24 -10 46 0 28 -4 39 -15 39
-11 0 -15 -12 -15 -44z"/>
<path d="M1370 326 c0 -34 0 -34 -32 -25 -23 6 -40 5 -60 -5 -15 -8 -28 -10
-28 -5 0 5 -19 9 -41 9 l-42 0 5 -50 c3 -28 1 -53 -3 -56 -5 -3 -9 20 -9 50
l0 56 -40 0 c-23 0 -40 -5 -40 -11 0 -8 -4 -8 -15 1 -23 19 -81 16 -105 -5
-20 -18 -20 -18 -20 23 l0 42 -40 0 c-39 0 -40 -1 -40 -35 0 -28 -4 -35 -20
-35 -16 0 -20 7 -20 35 0 34 -1 35 -40 35 l-40 0 0 -115 0 -115 40 0 c40 0 40
0 40 40 0 33 3 40 20 40 17 0 20 -7 20 -40 0 -40 0 -40 40 -40 30 0 40 4 40
16 0 14 2 14 22 0 12 -9 32 -16 45 -16 29 0 73 20 73 33 0 6 10 1 23 -10 19
-18 35 -21 132 -21 61 0 116 5 123 10 8 7 12 7 12 -1 0 -7 25 -11 70 -11 l70
0 0 55 c0 34 4 55 11 55 8 0 10 -18 7 -55 -4 -52 -3 -55 18 -55 13 0 34 -11
48 -25 33 -33 101 -35 140 -4 25 19 26 25 26 114 l0 93 -52 4 c-35 2 -64 -2
-84 -13 -28 -14 -32 -14 -41 0 -7 12 -25 15 -71 13 l-62 -3 0 31 c0 28 -2 30
-40 30 -39 0 -40 -1 -40 -34z m-570 -36 c0 -40 0 -40 40 -40 40 0 40 0 40 40
0 33 3 40 20 40 19 0 20 -7 20 -96 0 -86 -2 -95 -17 -92 -13 2 -20 16 -23 43
-5 39 -6 40 -43 40 l-37 0 0 -43 c0 -34 -3 -43 -16 -40 -12 2 -16 21 -17 96
-2 82 0 92 16 92 13 0 17 -9 17 -40z m630 25 c0 -8 -9 -15 -20 -15 -11 0 -20
7 -20 15 0 8 9 15 20 15 11 0 20 -7 20 -15z m-368 -52 c22 -20 24 -76 2 -97
-50 -50 -137 -8 -120 59 13 53 79 74 118 38z m78 -32 c0 -56 10 -67 41 -51 17
10 20 19 17 56 -3 37 0 44 14 44 14 0 18 -8 18 -39 0 -21 3 -53 6 -70 5 -25 3
-31 -10 -31 -9 0 -19 7 -22 15 -5 13 -8 13 -21 -1 -38 -38 -83 6 -83 84 0 35
3 42 20 42 17 0 20 -7 20 -49z m215 39 c11 -17 -5 -32 -21 -19 -15 12 -44 6
-44 -10 0 -5 13 -12 29 -16 57 -12 66 -54 17 -76 -19 -9 -32 -9 -56 1 -37 15
-31 25 16 25 43 0 45 16 2 29 -58 19 -45 76 18 76 18 0 36 -4 39 -10z m73 -57
c-2 -55 -6 -68 -20 -71 -16 -3 -18 5 -18 67 0 65 2 71 20 71 19 0 21 -5 18
-67z m62 55 c0 -9 3 -9 12 0 15 15 51 15 66 0 7 -7 12 -38 12 -71 0 -50 -3
-58 -17 -55 -14 3 -17 12 -14 51 2 36 -1 49 -13 53 -27 11 -46 -15 -46 -63 0
-35 -3 -44 -16 -41 -12 2 -16 18 -17 71 -2 58 0 67 16 67 9 0 17 -5 17 -12z
m208 0 c9 -9 12 -9 12 0 0 7 7 12 15 12 12 0 15 -15 15 -79 0 -71 -2 -82 -22
-95 -36 -26 -108 -19 -108 10 0 16 26 19 35 4 15 -24 65 4 65 36 0 12 -4 12
-24 -1 -44 -29 -94 18 -81 76 10 44 64 66 93 37z"/>
<path d="M984 236 c-16 -42 24 -83 52 -54 25 25 11 68 -22 68 -13 0 -27 -6
-30 -14z m41 -24 c0 -18 -20 -15 -23 4 -3 10 1 15 10 12 7 -3 13 -10 13 -16z"/>
<path d="M1647 243 c-13 -12 -7 -50 9 -64 31 -26 70 25 44 56 -13 16 -42 20
-53 8z m38 -31 c0 -18 -20 -15 -23 4 -3 10 1 15 10 12 7 -3 13 -10 13 -16z"/>
</g>
</svg>
