<?xml version="1.0" standalone="no"?>
<!DOCTYPE svg PUBLIC "-//W3C//DTD SVG 20010904//EN"
 "http://www.w3.org/TR/2001/REC-SVG-20010904/DTD/svg10.dtd">
<svg version="1.0" xmlns="http://www.w3.org/2000/svg"
 width="50.000000pt" height="25.0000pt" viewBox="30 50 240.000000 130.000000"
 preserveAspectRatio="xMidYMid meet">
<metadata>
Created by potrace 1.10, written by Peter Selinger 2001-2011
</metadata>
<g transform="translate(0.000000,225.000000) scale(0.100000,-0.100000)"
fill="#000000" stroke="none">
<path d="M2248 1712 c-1 -4 -79 -72 -173 -151 -93 -80 -173 -147 -176 -150 -4
-3 -10 -42 -13 -85 l-7 -79 32 25 c40 30 53 56 20 39 -19 -11 -21 -9 -21 18 0
16 4 41 9 54 8 21 109 113 265 242 27 22 55 46 63 53 11 12 41 -9 188 -133
174 -145 175 -147 175 -187 0 -34 -3 -39 -17 -33 -10 4 -27 10 -38 13 -28 7
-103 69 -110 91 -4 15 -140 130 -182 154 -14 9 -180 -127 -188 -154 -3 -10
-32 -41 -63 -69 l-57 -51 1 -129 0 -129 -28 -10 c-37 -13 -36 -41 1 -83 26
-30 30 -43 36 -126 6 -76 11 -96 31 -117 26 -28 69 -33 78 -9 3 9 6 64 6 124
l0 108 53 12 c56 12 274 50 287 50 4 0 9 -54 11 -119 3 -102 7 -124 25 -148
12 -15 32 -30 44 -31 42 -7 50 20 50 161 0 118 2 130 21 146 l20 16 -20 27
c-19 23 -21 40 -21 153 l0 127 40 -32 40 -32 0 71 0 70 -185 156 c-102 85
-187 155 -189 155 -3 0 -6 -3 -8 -8z m154 -260 c26 -19 35 -32 31 -42 -4 -8
-9 -80 -11 -160 l-3 -146 -154 -12 c-85 -7 -161 -15 -169 -18 -12 -5 -14 21
-11 173 l2 177 84 72 83 72 56 -45 c30 -25 72 -57 92 -71z m88 -104 l30 -22 0
-125 c1 -93 4 -131 15 -145 12 -16 12 -21 0 -40 -11 -15 -15 -52 -15 -141 0
-132 -8 -161 -37 -133 -13 13 -18 44 -24 130 -8 125 -13 145 -38 153 -10 3
-69 -4 -132 -14 -249 -43 -239 -36 -239 -183 0 -59 -3 -108 -7 -108 -33 1 -51
59 -52 162 -1 38 -7 54 -32 82 l-31 36 28 23 28 24 -3 124 -2 124 35 34 36 35
0 -140 c0 -167 9 -190 69 -181 20 4 95 11 166 17 91 8 135 17 148 27 15 14 17
35 17 150 0 73 2 133 5 133 3 0 19 -10 35 -22z"/>
<path d="M1478 1702 c-1 -5 -82 -76 -179 -159 l-176 -151 -6 -73 c-3 -40 -4
-75 -1 -78 6 -6 74 60 74 72 0 5 -12 2 -26 -8 l-27 -17 6 48 c6 57 -13 37 260
268 43 36 83 66 90 66 7 0 86 -63 178 -139 161 -137 165 -140 167 -181 l3 -42
-33 7 c-36 8 -116 69 -127 96 -9 27 -173 159 -196 159 -27 -1 -175 -131 -175
-155 0 -6 -25 -31 -55 -55 l-54 -45 -1 -132 0 -131 -30 -11 c-39 -13 -39 -40
0 -85 28 -31 31 -43 37 -121 5 -73 10 -92 31 -117 18 -21 32 -28 51 -26 l26 3
3 122 3 121 47 11 c58 12 203 38 258 45 l41 6 5 -120 c6 -130 18 -165 63 -176
49 -12 55 6 55 157 0 129 1 138 20 144 11 3 20 13 20 21 0 8 -9 23 -20 34 -18
18 -20 33 -20 136 l0 115 35 -27 35 -26 0 70 0 70 -185 156 c-102 86 -187 156
-189 156 -2 0 -6 -4 -8 -8z m188 -331 c-3 -20 -6 -88 -6 -151 l0 -116 -147
-12 c-82 -6 -157 -14 -168 -17 -20 -6 -20 -2 -18 171 l2 177 78 67 78 67 93
-75 c92 -74 94 -76 88 -111z m-372 -67 c3 -26 6 -88 6 -138 0 -127 3 -130 110
-117 47 5 121 13 165 16 114 10 115 11 115 162 0 67 3 123 8 123 4 0 20 -11
36 -23 l29 -24 -2 -107 c-1 -86 2 -113 16 -136 16 -27 16 -30 0 -48 -14 -15
-17 -40 -17 -145 0 -130 -7 -154 -37 -124 -12 12 -17 47 -22 137 -5 106 -9
124 -26 136 -12 9 -31 13 -50 10 -16 -3 -50 -9 -75 -12 -25 -3 -85 -14 -135
-25 -121 -25 -125 -31 -125 -165 0 -57 -4 -104 -8 -104 -25 0 -40 41 -47 123
-6 79 -10 92 -37 123 l-30 34 28 23 c26 23 27 25 28 149 1 119 2 128 25 152
14 14 28 26 31 26 4 0 10 -21 14 -46z"/>
<path d="M835 1456 c-160 -31 -365 -84 -392 -102 -64 -41 19 -142 93 -113 16
6 63 21 104 33 l75 22 0 -282 0 -282 24 -26 c37 -39 68 -35 80 12 5 20 15 163
21 317 7 154 13 281 15 283 2 2 53 11 115 21 62 10 115 24 120 31 12 20 0 48
-37 80 -41 36 -55 37 -218 6z m199 -27 c45 -35 34 -44 -69 -59 -145 -19 -141
-14 -150 -217 -3 -93 -8 -179 -10 -193 -2 -14 -4 -70 -4 -125 -1 -117 -11
-142 -41 -106 -19 22 -20 39 -20 295 0 279 -2 296 -40 296 -8 0 -54 -12 -102
-26 -94 -29 -133 -27 -143 7 -4 11 -5 22 -3 25 16 15 378 100 503 117 17 2 35
5 41 6 6 0 23 -8 38 -20z"/>
</g>
</svg>
